<svg xmlns="http://www.w3.org/2000/svg" xmlns:xlink="http://www.w3.org/1999/xlink" width="511pt" height="1135pt" viewBox="0 0 511 1135"><g id="graph0" class="graph" transform="scale(1 1) rotate(0) translate(4 1131)"><g id="node1" class="node"><title>-2955635299167129118</title><path fill="none" stroke="#c4c7c7" stroke-dasharray="5 2" d="M299,-1127C299,-1127 243,-1127 243,-1127 237,-1127 231,-1121 231,-1115 231,-1115 231,-1103 231,-1103 231,-1097 237,-1091 243,-1091 243,-1091 299,-1091 299,-1091 305,-1091 311,-1097 311,-1103 311,-1103 311,-1115 311,-1115 311,-1121 305,-1127 299,-1127"/><text x="271" y="-1112.4" fill="#c4c7c7" font-family="Times New Roman,serif" font-size="12" text-anchor="middle">Distribuição</text><text x="271" y="-1099.4" fill="#c4c7c7" font-family="Times New Roman,serif" font-size="12" text-anchor="middle">não executou</text></g><g id="node2" class="node"><title>7072029173140770679</title><path fill="none" stroke="#c4c7c7" stroke-dasharray="5 2" d="M70,-36C70,-36 14,-36 14,-36 8,-36 2,-30 2,-24 2,-24 2,-12 2,-12 2,-6 8,0 14,0 14,0 70,0 70,0 76,0 82,-6 82,-12 82,-12 82,-24 82,-24 82,-30 76,-36 70,-36"/><text x="42" y="-21.4" fill="#c4c7c7" font-family="Times New Roman,serif" font-size="12" text-anchor="middle">Definitivo</text><text x="42" y="-8.4" fill="#c4c7c7" font-family="Times New Roman,serif" font-size="12" text-anchor="middle">não executou</text></g><g id="node3" class="node"><title>-1372013103740134097</title><g id="a_node3"><a xlink:title="A10"><path fill="#fff" stroke="#000" stroke-width="2.78" d="M377,-806C377,-806 317,-806 317,-806 311,-806 305,-800 305,-794 305,-794 305,-778 305,-778 305,-772 311,-766 317,-766 317,-766 377,-766 377,-766 383,-766 389,-772 389,-778 389,-778 389,-794 389,-794 389,-800 383,-806 377,-806"/><text x="347" y="-789.4" font-family="Times New Roman,serif" font-size="12" text-anchor="middle">A10</text><text x="347" y="-776.4" font-family="Times New Roman,serif" font-size="12" text-anchor="middle">6 movimentos</text></a></g></g><g id="node7" class="node"><title>-8160673317329951620</title><g id="a_node7"><a xlink:title="A14"><path fill="#fff" stroke="#000" stroke-width="1.67" d="M350,-717C350,-717 290,-717 290,-717 284,-717 278,-711 278,-705 278,-705 278,-689 278,-689 278,-683 284,-677 290,-677 290,-677 350,-677 350,-677 356,-677 362,-683 362,-689 362,-689 362,-705 362,-705 362,-711 356,-717 350,-717"/><text x="320" y="-700.4" font-family="Times New Roman,serif" font-size="12" text-anchor="middle">A14</text><text x="320" y="-687.4" font-family="Times New Roman,serif" font-size="12" text-anchor="middle">4 movimentos</text></a></g></g><g id="edge1" class="edge"><title>-1372013103740134097-&gt;-8160673317329951620</title><g id="a_edge1"><a xlink:title="A10 -&gt; A14"><path fill="none" stroke="#009600" d="M341.01,-765.69C337.48,-754.32 332.94,-739.7 328.99,-726.97"/><polygon fill="#009600" stroke="#009600" points="332.28 -725.77 325.98 -717.25 325.6 -727.84 332.28 -725.77"/></a></g><g id="a_edge1-label"><a xlink:title="A10 -&gt; A14"><text x="343.5" y="-738.4" font-family="Times New Roman,serif" font-size="12" text-anchor="middle">0s</text></a></g></g><g id="node4" class="node"><title>-3492587082117239332</title><g id="a_node4"><a xlink:title="A11"><path fill="#fff" stroke="#000" stroke-width="1.67" d="M210,-450C210,-450 150,-450 150,-450 144,-450 138,-444 138,-438 138,-438 138,-422 138,-422 138,-416 144,-410 150,-410 150,-410 210,-410 210,-410 216,-410 222,-416 222,-422 222,-422 222,-438 222,-438 222,-444 216,-450 210,-450"/><text x="180" y="-433.4" font-family="Times New Roman,serif" font-size="12" text-anchor="middle">A11</text><text x="180" y="-420.4" font-family="Times New Roman,serif" font-size="12" text-anchor="middle">4 movimentos</text></a></g></g><g id="node18" class="node"><title>-6233061419764571077</title><g id="a_node18"><a xlink:title="A5"><path fill="#fff" stroke="#000" stroke-width="5" d="M199,-361C199,-361 133,-361 133,-361 127,-361 121,-355 121,-349 121,-349 121,-333 121,-333 121,-327 127,-321 133,-321 133,-321 199,-321 199,-321 205,-321 211,-327 211,-333 211,-333 211,-349 211,-349 211,-355 205,-361 199,-361"/><text x="166" y="-344.4" font-family="Times New Roman,serif" font-size="12" text-anchor="middle">A5</text><text x="166" y="-331.4" font-family="Times New Roman,serif" font-size="12" text-anchor="middle">10 movimentos</text></a></g></g><g id="edge2" class="edge"><title>-3492587082117239332-&gt;-6233061419764571077</title><g id="a_edge2"><a xlink:title="A11 -&gt; A5"><path fill="none" stroke="#009600" stroke-width="1.67" d="M176.89,-409.69C175.08,-398.43 172.76,-383.99 170.72,-371.35"/><polygon fill="#009600" stroke="#009600" stroke-width="1.67" points="174.14 -370.57 169.1 -361.25 167.23 -371.68 174.14 -370.57"/></a></g><g id="a_edge2-label"><a xlink:title="A11 -&gt; A5"><text x="181.5" y="-382.4" font-family="Times New Roman,serif" font-size="12" text-anchor="middle">0s</text></a></g></g><g id="node5" class="node"><title>3860639587732402187</title><g id="a_node5"><a xlink:title="A12"><path fill="#fff" stroke="#000" stroke-width="2.22" d="M248,-806C248,-806 188,-806 188,-806 182,-806 176,-800 176,-794 176,-794 176,-778 176,-778 176,-772 182,-766 188,-766 188,-766 248,-766 248,-766 254,-766 260,-772 260,-778 260,-778 260,-794 260,-794 260,-800 254,-806 248,-806"/><text x="218" y="-789.4" font-family="Times New Roman,serif" font-size="12" text-anchor="middle">A12</text><text x="218" y="-776.4" font-family="Times New Roman,serif" font-size="12" text-anchor="middle">5 movimentos</text></a></g></g><g id="node6" class="node"><title>2196862562947111385</title><g id="a_node6"><a xlink:title="A13"><path fill="#fff" stroke="#000" stroke-width="1.67" d="M195,-717C195,-717 135,-717 135,-717 129,-717 123,-711 123,-705 123,-705 123,-689 123,-689 123,-683 129,-677 135,-677 135,-677 195,-677 195,-677 201,-677 207,-683 207,-689 207,-689 207,-705 207,-705 207,-711 201,-717 195,-717"/><text x="165" y="-700.4" font-family="Times New Roman,serif" font-size="12" text-anchor="middle">A13</text><text x="165" y="-687.4" font-family="Times New Roman,serif" font-size="12" text-anchor="middle">4 movimentos</text></a></g></g><g id="edge3" class="edge"><title>3860639587732402187-&gt;2196862562947111385</title><g id="a_edge3"><a xlink:title="A12 -&gt; A13"><path fill="none" stroke="#009600" stroke-width="2.5" d="M206.24,-765.69C199.1,-753.98 189.87,-738.83 181.96,-725.84"/><polygon fill="#009600" stroke="#009600" stroke-width="2.5" points="184.92 -723.97 176.73 -717.25 178.94 -727.62 184.92 -723.97"/></a></g><g id="a_edge3-label"><a xlink:title="A12 -&gt; A13"><text x="202.5" y="-738.4" font-family="Times New Roman,serif" font-size="12" text-anchor="middle">0s</text></a></g></g><g id="node16" class="node"><title>7759015927460220005</title><g id="a_node16"><a xlink:title="A3"><path fill="#fff" stroke="#000" stroke-width="5" d="M184,-628C184,-628 118,-628 118,-628 112,-628 106,-622 106,-616 106,-616 106,-600 106,-600 106,-594 112,-588 118,-588 118,-588 184,-588 184,-588 190,-588 196,-594 196,-600 196,-600 196,-616 196,-616 196,-622 190,-628 184,-628"/><text x="151" y="-611.4" font-family="Times New Roman,serif" font-size="12" text-anchor="middle">A3</text><text x="151" y="-598.4" font-family="Times New Roman,serif" font-size="12" text-anchor="middle">10 movimentos</text></a></g></g><g id="edge4" class="edge"><title>2196862562947111385-&gt;7759015927460220005</title><g id="a_edge4"><a xlink:title="A13 -&gt; A3"><path fill="none" stroke="#963c00" stroke-width="2.5" d="M161.89,-676.69C160.08,-665.43 157.76,-650.99 155.72,-638.35"/><polygon fill="#963c00" stroke="#963c00" stroke-width="2.5" points="159.14 -637.57 154.1 -628.25 152.23 -638.68 159.14 -637.57"/></a></g><g id="a_edge4-label"><a xlink:title="A13 -&gt; A3"><text x="171.5" y="-649.4" font-family="Times New Roman,serif" font-size="12" text-anchor="middle">28D</text></a></g></g><g id="node8" class="node"><title>-8481297160812715326</title><g id="a_node8"><a xlink:title="A15"><path fill="#fff" stroke="#000" d="M301,-1073C301,-1073 241,-1073 241,-1073 235,-1073 229,-1067 229,-1061 229,-1061 229,-1045 229,-1045 229,-1039 235,-1033 241,-1033 241,-1033 301,-1033 301,-1033 307,-1033 313,-1039 313,-1045 313,-1045 313,-1061 313,-1061 313,-1067 307,-1073 301,-1073"/><text x="271" y="-1056.4" font-family="Times New Roman,serif" font-size="12" text-anchor="middle">A15</text><text x="271" y="-1043.4" font-family="Times New Roman,serif" font-size="12" text-anchor="middle">2 movimentos</text></a></g></g><g id="node9" class="node"><title>-5000034493256299319</title><g id="a_node9"><a xlink:title="A16"><path fill="#fff" stroke="#000" d="M301,-984C301,-984 241,-984 241,-984 235,-984 229,-978 229,-972 229,-972 229,-956 229,-956 229,-950 235,-944 241,-944 241,-944 301,-944 301,-944 307,-944 313,-950 313,-956 313,-956 313,-972 313,-972 313,-978 307,-984 301,-984"/><text x="271" y="-967.4" font-family="Times New Roman,serif" font-size="12" text-anchor="middle">A16</text><text x="271" y="-954.4" font-family="Times New Roman,serif" font-size="12" text-anchor="middle">2 movimentos</text></a></g></g><g id="edge5" class="edge"><title>-8481297160812715326-&gt;-5000034493256299319</title><g id="a_edge5"><a xlink:title="A15 -&gt; A16"><path fill="none" stroke="#009600" d="M271,-1032.69C271,-1021.43 271,-1006.99 271,-994.35"/><polygon fill="#009600" stroke="#009600" points="274.5 -994.25 271 -984.25 267.5 -994.25 274.5 -994.25"/></a></g><g id="a_edge5-label"><a xlink:title="A15 -&gt; A16"><text x="279.5" y="-1005.4" font-family="Times New Roman,serif" font-size="12" text-anchor="middle">0s</text></a></g></g><g id="node22" class="node"><title>-1206024415001834154</title><g id="a_node22"><a xlink:title="A9"><path fill="#fff" stroke="#000" stroke-width="5" d="M348,-895C348,-895 282,-895 282,-895 276,-895 270,-889 270,-883 270,-883 270,-867 270,-867 270,-861 276,-855 282,-855 282,-855 348,-855 348,-855 354,-855 360,-861 360,-867 360,-867 360,-883 360,-883 360,-889 354,-895 348,-895"/><text x="315" y="-878.4" font-family="Times New Roman,serif" font-size="12" text-anchor="middle">A9</text><text x="315" y="-865.4" font-family="Times New Roman,serif" font-size="12" text-anchor="middle">10 movimentos</text></a></g></g><g id="edge6" class="edge"><title>-5000034493256299319-&gt;-1206024415001834154</title><g id="a_edge6"><a xlink:title="A16 -&gt; A9"><path fill="none" stroke="#009600" d="M280.77,-943.69C286.63,-932.09 294.2,-917.12 300.73,-904.21"/><polygon fill="#009600" stroke="#009600" points="303.87 -905.76 305.26 -895.25 297.63 -902.6 303.87 -905.76"/></a></g><g id="a_edge6-label"><a xlink:title="A16 -&gt; A9"><text x="303.5" y="-916.4" font-family="Times New Roman,serif" font-size="12" text-anchor="middle">0s</text></a></g></g><g id="node10" class="node"><title>-7141921202123128286</title><g id="a_node10"><a xlink:title="A18"><path fill="#fff" stroke="#000" d="M143,-183C143,-183 83,-183 83,-183 77,-183 71,-177 71,-171 71,-171 71,-155 71,-155 71,-149 77,-143 83,-143 83,-143 143,-143 143,-143 149,-143 155,-149 155,-155 155,-155 155,-171 155,-171 155,-177 149,-183 143,-183"/><text x="113" y="-166.4" font-family="Times New Roman,serif" font-size="12" text-anchor="middle">A18</text><text x="113" y="-153.4" font-family="Times New Roman,serif" font-size="12" text-anchor="middle">2 movimentos</text></a></g></g><g id="node11" class="node"><title>-809659810974949157</title><g id="a_node11"><a xlink:title="A19"><path fill="#fff" stroke="#000" d="M72,-94C72,-94 12,-94 12,-94 6,-94 0,-88 0,-82 0,-82 0,-66 0,-66 0,-60 6,-54 12,-54 12,-54 72,-54 72,-54 78,-54 84,-60 84,-66 84,-66 84,-82 84,-82 84,-88 78,-94 72,-94"/><text x="42" y="-77.4" font-family="Times New Roman,serif" font-size="12" text-anchor="middle">A19</text><text x="42" y="-64.4" font-family="Times New Roman,serif" font-size="12" text-anchor="middle">2 movimentos</text></a></g></g><g id="edge7" class="edge"><title>-7141921202123128286-&gt;-809659810974949157</title><g id="a_edge7"><a xlink:title="A18 -&gt; A19"><path fill="none" stroke="#009600" d="M97.24,-142.69C87.5,-130.75 74.85,-115.25 64.11,-102.09"/><polygon fill="#009600" stroke="#009600" points="66.75 -99.79 57.71 -94.25 61.32 -104.21 66.75 -99.79"/></a></g><g id="a_edge7-label"><a xlink:title="A18 -&gt; A19"><text x="89.5" y="-115.4" font-family="Times New Roman,serif" font-size="12" text-anchor="middle">0s</text></a></g></g><g id="edge8" class="edge"><title>-809659810974949157-&gt;-1206024415001834154</title><g id="a_edge8"><a xlink:title="A19 -&gt; A9"><path fill="none" stroke="#009600" d="M31.34,-94.05C22.72,-111.25 12,-137.56 12,-162 12,-787 12,-787 12,-787 12,-838 172.59,-860.85 259.95,-869.51"/><polygon fill="#009600" stroke="#009600" points="259.68 -873 269.97 -870.47 260.35 -866.03 259.68 -873"/></a></g><g id="a_edge8-label"><a xlink:title="A19 -&gt; A9"><text x="20.5" y="-471.4" font-family="Times New Roman,serif" font-size="12" text-anchor="middle">0s</text></a></g></g><g id="node12" class="node"><title>6956288070341401349</title><g id="a_node12"><a xlink:title="A20"><path fill="#fff" stroke="#000" d="M491,-806C491,-806 431,-806 431,-806 425,-806 419,-800 419,-794 419,-794 419,-778 419,-778 419,-772 425,-766 431,-766 431,-766 491,-766 491,-766 497,-766 503,-772 503,-778 503,-778 503,-794 503,-794 503,-800 497,-806 491,-806"/><text x="461" y="-789.4" font-family="Times New Roman,serif" font-size="12" text-anchor="middle">A20</text><text x="461" y="-776.4" font-family="Times New Roman,serif" font-size="12" text-anchor="middle">1 movimentos</text></a></g></g><g id="node13" class="node"><title>-7280169374215659995</title><g id="a_node13"><a xlink:title="A21"><path fill="#fff" stroke="#000" d="M104,-361C104,-361 44,-361 44,-361 38,-361 32,-355 32,-349 32,-349 32,-333 32,-333 32,-327 38,-321 44,-321 44,-321 104,-321 104,-321 110,-321 116,-327 116,-333 116,-333 116,-349 116,-349 116,-355 110,-361 104,-361"/><text x="74" y="-344.4" font-family="Times New Roman,serif" font-size="12" text-anchor="middle">A21</text><text x="74" y="-331.4" font-family="Times New Roman,serif" font-size="12" text-anchor="middle">1 movimentos</text></a></g></g><g id="node19" class="node"><title>6955156536355772979</title><g id="a_node19"><a xlink:title="A6"><path fill="#fff" stroke="#000" stroke-width="3.89" d="M196,-272C196,-272 136,-272 136,-272 130,-272 124,-266 124,-260 124,-260 124,-244 124,-244 124,-238 130,-232 136,-232 136,-232 196,-232 196,-232 202,-232 208,-238 208,-244 208,-244 208,-260 208,-260 208,-266 202,-272 196,-272"/><text x="166" y="-255.4" font-family="Times New Roman,serif" font-size="12" text-anchor="middle">A6</text><text x="166" y="-242.4" font-family="Times New Roman,serif" font-size="12" text-anchor="middle">8 movimentos</text></a></g></g><g id="edge9" class="edge"><title>-7280169374215659995-&gt;6955156536355772979</title><g id="a_edge9"><a xlink:title="A21 -&gt; A6"><path fill="none" stroke="#009600" d="M94.42,-320.69C107.28,-308.53 124.06,-292.66 138.14,-279.35"/><polygon fill="#009600" stroke="#009600" points="140.78 -281.67 145.64 -272.25 135.97 -276.58 140.78 -281.67"/></a></g><g id="a_edge9-label"><a xlink:title="A21 -&gt; A6"><text x="133.5" y="-293.4" font-family="Times New Roman,serif" font-size="12" text-anchor="middle">0s</text></a></g></g><g id="node14" class="node"><title>-6002558222360305085</title><g id="a_node14"><a xlink:title="A23"><path fill="#fff" stroke="#000" d="M390,-984C390,-984 330,-984 330,-984 324,-984 318,-978 318,-972 318,-972 318,-956 318,-956 318,-950 324,-944 330,-944 330,-944 390,-944 390,-944 396,-944 402,-950 402,-956 402,-956 402,-972 402,-972 402,-978 396,-984 390,-984"/><text x="360" y="-967.4" font-family="Times New Roman,serif" font-size="12" text-anchor="middle">A23</text><text x="360" y="-954.4" font-family="Times New Roman,serif" font-size="12" text-anchor="middle">1 movimentos</text></a></g></g><g id="edge10" class="edge"><title>-6002558222360305085-&gt;-1206024415001834154</title><g id="a_edge10"><a xlink:title="A23 -&gt; A9"><path fill="none" stroke="#009600" d="M350.01,-943.69C344.01,-932.09 336.27,-917.12 329.59,-904.21"/><polygon fill="#009600" stroke="#009600" points="332.66 -902.53 324.96 -895.25 326.44 -905.74 332.66 -902.53"/></a></g><g id="a_edge10-label"><a xlink:title="A23 -&gt; A9"><text x="348.5" y="-916.4" font-family="Times New Roman,serif" font-size="12" text-anchor="middle">0s</text></a></g></g><g id="node15" class="node"><title>-1853423603800755779</title><g id="a_node15"><a xlink:title="A24"><path fill="#fff" stroke="#000" d="M288,-361C288,-361 228,-361 228,-361 222,-361 216,-355 216,-349 216,-349 216,-333 216,-333 216,-327 222,-321 228,-321 228,-321 288,-321 288,-321 294,-321 300,-327 300,-333 300,-333 300,-349 300,-349 300,-355 294,-361 288,-361"/><text x="258" y="-344.4" font-family="Times New Roman,serif" font-size="12" text-anchor="middle">A24</text><text x="258" y="-331.4" font-family="Times New Roman,serif" font-size="12" text-anchor="middle">1 movimentos</text></a></g></g><g id="edge11" class="edge"><title>-1853423603800755779-&gt;6955156536355772979</title><g id="a_edge11"><a xlink:title="A24 -&gt; A6"><path fill="none" stroke="#009600" d="M237.58,-320.69C224.72,-308.53 207.94,-292.66 193.86,-279.35"/><polygon fill="#009600" stroke="#009600" points="196.03 -276.58 186.36 -272.25 191.22 -281.67 196.03 -276.58"/></a></g><g id="a_edge11-label"><a xlink:title="A24 -&gt; A6"><text x="225.5" y="-293.4" font-family="Times New Roman,serif" font-size="12" text-anchor="middle">0s</text></a></g></g><g id="edge12" class="edge"><title>7759015927460220005-&gt;-3492587082117239332</title><g id="a_edge12"><a xlink:title="A3 -&gt; A11"><path fill="none" stroke="#009600" stroke-width="1.67" d="M163.52,-587.99C171.4,-574.84 180.85,-556.6 185,-539 191.19,-512.78 188.87,-482.02 185.63,-460.04"/><polygon fill="#009600" stroke="#009600" stroke-width="1.67" points="189.06 -459.33 184 -450.02 182.15 -460.45 189.06 -459.33"/></a></g><g id="a_edge12-label"><a xlink:title="A3 -&gt; A11"><text x="196.5" y="-515.9" font-family="Times New Roman,serif" font-size="12" text-anchor="middle">0s</text></a></g></g><g id="node17" class="node"><title>-720698082535731211</title><g id="a_node17"><a xlink:title="A4"><path fill="#fff" stroke="#000" stroke-width="3.89" d="M172,-539C172,-539 112,-539 112,-539 106,-539 100,-533 100,-527 100,-527 100,-511 100,-511 100,-505 106,-499 112,-499 112,-499 172,-499 172,-499 178,-499 184,-505 184,-511 184,-511 184,-527 184,-527 184,-533 178,-539 172,-539"/><text x="142" y="-522.4" font-family="Times New Roman,serif" font-size="12" text-anchor="middle">A4</text><text x="142" y="-509.4" font-family="Times New Roman,serif" font-size="12" text-anchor="middle">8 movimentos</text></a></g></g><g id="edge13" class="edge"><title>7759015927460220005-&gt;-720698082535731211</title><g id="a_edge13"><a xlink:title="A3 -&gt; A4"><path fill="none" stroke="#009600" stroke-width="5" d="M149,-587.69C147.84,-576.43 146.34,-561.99 145.04,-549.35"/><polygon fill="#009600" stroke="#009600" stroke-width="5" points="149.37 -548.75 143.99 -539.25 140.67 -549.65 149.37 -548.75"/></a></g><g id="a_edge13-label"><a xlink:title="A3 -&gt; A4"><text x="155.5" y="-560.4" font-family="Times New Roman,serif" font-size="12" text-anchor="middle">0s</text></a></g></g><g id="edge14" class="edge"><title>-720698082535731211-&gt;-3492587082117239332</title><g id="a_edge14"><a xlink:title="A4 -&gt; A11"><path fill="none" stroke="#009600" d="M150.43,-498.69C155.45,-487.2 161.91,-472.41 167.51,-459.59"/><polygon fill="#009600" stroke="#009600" points="170.79 -460.82 171.59 -450.25 164.38 -458.02 170.79 -460.82"/></a></g><g id="a_edge14-label"><a xlink:title="A4 -&gt; A11"><text x="171.5" y="-471.4" font-family="Times New Roman,serif" font-size="12" text-anchor="middle">0s</text></a></g></g><g id="edge15" class="edge"><title>-720698082535731211-&gt;-6233061419764571077</title><g id="a_edge15"><a xlink:title="A4 -&gt; A5"><path fill="none" stroke="#009600" stroke-width="5" d="M129.54,-498.65C117.13,-476.86 101.36,-440.5 112,-410 117.32,-394.73 127.67,-380.32 137.88,-368.73"/><polygon fill="#009600" stroke="#009600" stroke-width="5" points="141.29 -371.49 144.88 -361.18 134.87 -365.55 141.29 -371.49"/></a></g><g id="a_edge15-label"><a xlink:title="A4 -&gt; A5"><text x="120.5" y="-426.9" font-family="Times New Roman,serif" font-size="12" text-anchor="middle">0s</text></a></g></g><g id="edge16" class="edge"><title>-6233061419764571077-&gt;3860639587732402187</title><g id="a_edge16"><a xlink:title="A5 -&gt; A12"><path fill="none" stroke="#009600" d="M199.05,-361.16C220.69,-376.43 245,-400.03 245,-429 245,-698 245,-698 245,-698 245,-718.04 238.39,-739.55 231.71,-756.17"/><polygon fill="#009600" stroke="#009600" points="228.29 -755.26 227.6 -765.83 234.73 -758 228.29 -755.26"/></a></g><g id="a_edge16-label"><a xlink:title="A5 -&gt; A12"><text x="253.5" y="-560.4" font-family="Times New Roman,serif" font-size="12" text-anchor="middle">0s</text></a></g></g><g id="edge17" class="edge"><title>-6233061419764571077-&gt;7759015927460220005</title><g id="a_edge17"><a xlink:title="A5 -&gt; A3"><path fill="none" stroke="#960000" stroke-width="1.67" d="M135.53,-361.07C128.81,-366.28 122.17,-372.35 117,-379 91.47,-411.85 93.58,-426.77 88,-468 83.76,-499.3 79.07,-509.76 91,-539 97.39,-554.67 108.99,-569.16 120.3,-580.71"/><polygon fill="#960000" stroke="#960000" stroke-width="1.67" points="118.02 -583.38 127.63 -587.85 122.91 -578.37 118.02 -583.38"/></a></g><g id="a_edge17-label"><a xlink:title="A5 -&gt; A3"><text x="99.5" y="-471.4" font-family="Times New Roman,serif" font-size="12" text-anchor="middle">2M</text></a></g></g><g id="edge18" class="edge"><title>-6233061419764571077-&gt;6955156536355772979</title><g id="a_edge18"><a xlink:title="A5 -&gt; A6"><path fill="none" stroke="#009600" stroke-width="3.33" d="M166,-320.69C166,-309.43 166,-294.99 166,-282.35"/><polygon fill="#009600" stroke="#009600" stroke-width="3.33" points="169.5 -282.25 166 -272.25 162.5 -282.25 169.5 -282.25"/></a></g><g id="a_edge18-label"><a xlink:title="A5 -&gt; A6"><text x="174.5" y="-293.4" font-family="Times New Roman,serif" font-size="12" text-anchor="middle">0s</text></a></g></g><g id="edge19" class="edge"><title>6955156536355772979-&gt;-7141921202123128286</title><g id="a_edge19"><a xlink:title="A6 -&gt; A18"><path fill="none" stroke="#009600" d="M154.24,-231.69C147.1,-219.98 137.87,-204.83 129.96,-191.84"/><polygon fill="#009600" stroke="#009600" points="132.92 -189.97 124.73 -183.25 126.94 -193.62 132.92 -189.97"/></a></g><g id="a_edge19-label"><a xlink:title="A6 -&gt; A18"><text x="150.5" y="-204.4" font-family="Times New Roman,serif" font-size="12" text-anchor="middle">0s</text></a></g></g><g id="node20" class="node"><title>1985964353488742915</title><g id="a_node20"><a xlink:title="A7"><path fill="#fff" stroke="#000" stroke-width="2.22" d="M245,-183C245,-183 185,-183 185,-183 179,-183 173,-177 173,-171 173,-171 173,-155 173,-155 173,-149 179,-143 185,-143 185,-143 245,-143 245,-143 251,-143 257,-149 257,-155 257,-155 257,-171 257,-171 257,-177 251,-183 245,-183"/><text x="215" y="-166.4" font-family="Times New Roman,serif" font-size="12" text-anchor="middle">A7</text><text x="215" y="-153.4" font-family="Times New Roman,serif" font-size="12" text-anchor="middle">5 movimentos</text></a></g></g><g id="edge20" class="edge"><title>6955156536355772979-&gt;1985964353488742915</title><g id="a_edge20"><a xlink:title="A6 -&gt; A7"><path fill="none" stroke="#009600" stroke-width="3.33" d="M176.87,-231.69C183.41,-220.09 191.84,-205.12 199.11,-192.21"/><polygon fill="#009600" stroke="#009600" stroke-width="3.33" points="202.3 -193.68 204.16 -183.25 196.2 -190.25 202.3 -193.68"/></a></g><g id="a_edge20-label"><a xlink:title="A6 -&gt; A7"><text x="201.5" y="-204.4" font-family="Times New Roman,serif" font-size="12" text-anchor="middle">0s</text></a></g></g><g id="node21" class="node"><title>6469312236351906662</title><g id="a_node21"><a xlink:title="A8"><path fill="#fff" stroke="#000" stroke-width="2.22" d="M375,-94C375,-94 315,-94 315,-94 309,-94 303,-88 303,-82 303,-82 303,-66 303,-66 303,-60 309,-54 315,-54 315,-54 375,-54 375,-54 381,-54 387,-60 387,-66 387,-66 387,-82 387,-82 387,-88 381,-94 375,-94"/><text x="345" y="-77.4" font-family="Times New Roman,serif" font-size="12" text-anchor="middle">A8</text><text x="345" y="-64.4" font-family="Times New Roman,serif" font-size="12" text-anchor="middle">5 movimentos</text></a></g></g><g id="edge21" class="edge"><title>1985964353488742915-&gt;6469312236351906662</title><g id="a_edge21"><a xlink:title="A7 -&gt; A8"><path fill="none" stroke="#009600" stroke-width="3.33" d="M243.53,-142.91C262.49,-130.22 287.59,-113.42 308.07,-99.71"/><polygon fill="#009600" stroke="#009600" stroke-width="3.33" points="310.17 -102.52 316.54 -94.05 306.28 -96.7 310.17 -102.52"/></a></g><g id="a_edge21-label"><a xlink:title="A7 -&gt; A8"><text x="295.5" y="-115.4" font-family="Times New Roman,serif" font-size="12" text-anchor="middle">0s</text></a></g></g><g id="edge22" class="edge"><title>6469312236351906662-&gt;-1206024415001834154</title><g id="a_edge22"><a xlink:title="A8 -&gt; A9"><path fill="none" stroke="#009600" stroke-width="2.5" d="M367.98,-94.3C384.55,-110.47 404,-135.17 404,-162 404,-787 404,-787 404,-787 404,-813.51 383.55,-834.6 362.26,-849.37"/><polygon fill="#009600" stroke="#009600" stroke-width="2.5" points="360.23 -846.51 353.78 -854.91 364.06 -852.37 360.23 -846.51"/></a></g><g id="a_edge22-label"><a xlink:title="A8 -&gt; A9"><text x="412.5" y="-471.4" font-family="Times New Roman,serif" font-size="12" text-anchor="middle">0s</text></a></g></g><g id="edge23" class="edge"><title>-1206024415001834154-&gt;-1372013103740134097</title><g id="a_edge23"><a xlink:title="A9 -&gt; A10"><path fill="none" stroke="#009600" stroke-width="2.5" d="M322.1,-854.69C326.29,-843.32 331.66,-828.7 336.35,-815.97"/><polygon fill="#009600" stroke="#009600" stroke-width="2.5" points="339.75 -816.85 339.92 -806.25 333.18 -814.43 339.75 -816.85"/></a></g><g id="a_edge23-label"><a xlink:title="A9 -&gt; A10"><text x="340.5" y="-827.4" font-family="Times New Roman,serif" font-size="12" text-anchor="middle">0s</text></a></g></g><g id="edge24" class="edge"><title>-1206024415001834154-&gt;3860639587732402187</title><g id="a_edge24"><a xlink:title="A9 -&gt; A12"><path fill="none" stroke="#969000" stroke-width="1.67" d="M272.29,-854.84C263.66,-849.8 255.08,-843.83 248,-837 241.51,-830.74 235.9,-822.77 231.35,-815.05"/><polygon fill="#969000" stroke="#969000" stroke-width="1.67" points="234.38 -813.3 226.5 -806.22 228.24 -816.67 234.38 -813.3"/></a></g><g id="a_edge24-label"><a xlink:title="A9 -&gt; A12"><text x="258.5" y="-827.4" font-family="Times New Roman,serif" font-size="12" text-anchor="middle">1D</text></a></g></g><g id="edge25" class="edge"><title>-1206024415001834154-&gt;-8160673317329951620</title><g id="a_edge25"><a xlink:title="A9 -&gt; A14"><path fill="none" stroke="#009600" d="M301.57,-854.81C293.27,-841.72 283.38,-823.63 279,-806 274.71,-788.75 274.24,-783.13 279,-766 282.97,-751.71 290.85,-737.42 298.64,-725.66"/><polygon fill="#009600" stroke="#009600" points="301.69 -727.41 304.52 -717.2 295.94 -723.41 301.69 -727.41"/></a></g><g id="a_edge25-label"><a xlink:title="A9 -&gt; A14"><text x="287.5" y="-782.9" font-family="Times New Roman,serif" font-size="12" text-anchor="middle">0s</text></a></g></g><g id="edge26" class="edge"><title>-1206024415001834154-&gt;6956288070341401349</title><g id="a_edge26"><a xlink:title="A9 -&gt; A20"><path fill="none" stroke="#009600" d="M360.23,-863.26C379.15,-857.42 400.7,-848.9 418,-837 426.91,-830.87 435.11,-822.45 441.89,-814.27"/><polygon fill="#009600" stroke="#009600" points="444.76 -816.28 448.19 -806.26 439.26 -811.96 444.76 -816.28"/></a></g><g id="a_edge26-label"><a xlink:title="A9 -&gt; A20"><text x="441.5" y="-827.4" font-family="Times New Roman,serif" font-size="12" text-anchor="middle">0s</text></a></g></g></g></svg>